<?xml version="1.0" encoding="UTF-8"?><svg xmlns="http://www.w3.org/2000/svg" viewBox="0 0 340.16 346.07"><defs><style>.d{fill:#fff;}.e{fill:#31351f;}</style></defs><g id="a"/><g id="b"><g id="c"><g><ellipse class="d" cx="170.08" cy="173.04" rx="170.08" ry="173.04"/><g><path class="e" d="M114.66,84.9c5.41,0,8.91,4.62,8.91,11.56,0,7.86-5.55,13.5-13.64,13.5-1.32,0-5-.37-7.14-1.62l-4.23,1.57v-28.62c0-2.25-.1-3.84-1.65-4.12,.16,.49,.24,1.03,.24,1.62,0,3.1-2.05,4.76-4.55,4.76-2.27,0-4-1.34-4.27-4.21,1.09-.51,2.05-1.48,2.05-3.1,0-1.43-.91-2.54-2.36-2.54-2.36,0-3.5,2.08-3.5,4.39,0,3.51,2.27,7.17,6.82,7.17h3.18v.37h-4.09v18.22c0,4.44,.41,5.36,4.09,5.36v.37h-16.14v-.37c3.23,0,3.64-.92,3.64-5.36v-18.22h-3.64v-.37h3.73c-.18-1.11-.41-2.36-.41-3.98,0-4.53,2.23-8.23,8.09-8.23,2.81,0,5.63,1.08,6.8,3.32l10.52-3.32-.18,16.77c2.02-3.15,4.59-4.93,7.73-4.93h0Zm-4.73,24.69c3.05,0,4.36-3.7,4.36-13.13,0-1.62-.05-9.2-3.64-9.2-1.53,0-2.52,1.37-3.68,3.12v14.35c0,2.36,.18,4.85,2.96,4.85h0Z"/><path class="e" d="M197.15,103.86c0,4.44,.41,5.36,3.64,5.36v.37h-14.64v-.37c2.5,0,2.54-1.25,2.54-5.36v-11.14c0-1.25,0-4.12-2.73-4.12-1.29,0-2.79,.62-4.14,1.81v13.44c0,3.33,.05,5.36,2.59,5.36v.37h-14.68v-.37c3.23,0,3.64-.92,3.64-5.36v-22.56c0-2.4-.11-4.05-1.98-4.16,.16,.5,.25,1.06,.25,1.66,0,3.1-2.05,4.76-4.55,4.76-2.27,0-4-1.34-4.27-4.21,1.09-.51,2.05-1.48,2.05-3.1,0-1.43-.91-2.54-2.36-2.54-2.36,0-3.5,2.08-3.5,4.39,0,3.51,2.27,7.17,6.82,7.17h3.18v.37h-4.09v18.22c0,4.44,.41,5.36,4.09,5.36v.37h-16.14v-.37c3.23,0,3.64-.92,3.64-5.36v-18.22h-3.64v-.37h3.73c-.18-1.11-.41-2.36-.41-3.98,0-4.53,2.23-8.23,8.09-8.23,2.85,0,5.7,1.11,6.84,3.41l10.79-3.41-.18,16.9c4.55-3.75,7.3-5.06,10.09-5.06,3.68,0,5.32,2.17,5.32,6.89v12.07Z"/><path class="e" d="M241.14,85.64v18.22c0,4.44,.41,5.36,3.64,5.36v.37h-15.68v-.37c3.23,0,3.64-.92,3.64-5.36v-18.22h-3.64v-.37h3.73c-.18-1.11-.41-2.36-.41-3.98,0-4.53,2.23-8.23,7.82-8.23,3.68,0,7.36,1.85,7.36,5.73,0,3.1-2.05,4.76-4.55,4.76-2.27,0-4-1.34-4.27-4.21,1.09-.51,2.04-1.48,2.04-3.1,0-1.43-.91-2.54-2.41-2.54-1.95,0-3.18,1.94-3.18,4.39,0,3.51,2.27,7.17,6.82,7.17h3.18c4.32,0,8.59-.05,12.91-.28l-.09,5.32v13.55c0,4.44,.41,5.36,3.64,5.36v.37h-15.73v-.37c3.23,0,3.64-.92,3.64-5.36v-13.41c0-3.1,.04-4.81-4.36-4.81h-4.09Zm7.68-7.54c0-2.77,2.27-5.04,5-5.04s5,2.22,5,5.04-2.23,5.13-5,5.13-5-2.31-5-5.13Z"/></g><g><path class="e" d="M128.94,196.44c0-2.77,2.05-4.53,4.55-4.53,2.27,0,4,1.34,4.27,4.21-1.09,.51-2.04,1.48-2.04,3.1,0,1.43,.95,2.54,2.54,2.54,2.23,0,3.32-2.08,3.32-4.39,0-3.51-2.27-6.24-6.18-7.17v-17.71c0-3.1,.04-4.81-4.36-4.81h-4.09v18.22c0,4.44,.41,5.36,3.64,5.36v.37h-15.68v-.37c3.23,0,3.64-.92,3.64-5.36v-18.22h-3.64v-.37h3.73c-.18-1.11-.41-2.36-.41-3.98,0-4.53,2.23-8.23,7.82-8.23,3.68,0,7.36,1.85,7.36,5.73,0,3.1-2.05,4.76-4.55,4.76-2.27,0-4-1.34-4.27-4.21,1.09-.51,2.04-1.48,2.04-3.1,0-1.43-.91-2.54-2.41-2.54-1.95,0-3.18,1.94-3.18,4.39,0,3.51,2.27,7.17,6.82,7.17h3.18c4.32,0,8.59-.05,12.91-.28l-.09,5.32v22.28c0,4.07-1.55,7.77-7.41,7.77-3.68,0-7.5-1.94-7.5-5.96Zm5.68-36.29c0-2.77,2.27-5.04,5-5.04s5,2.22,5,5.04-2.23,5.13-5,5.13-5-2.31-5-5.13Z"/><path class="e" d="M219.89,185.3c1.45,4.72,2.45,6.06,4.5,5.78v.37c-1.86,.46-3.73,.65-6.05,.65-5.5,0-6.59-2.4-7.77-6.52-1.05-3.7-1.27-7.58-3.91-7.58-.47,0-1,.13-1.59,.42v7.48c0,3.33,.04,5.36,3.04,5.36v.37h-15.14v-.37c3.23,0,3.64-.92,3.64-5.36v-22.56c0-2.53-.12-4.23-2.3-4.16,.16,.51,.25,1.06,.25,1.66,0,3.1-2.05,4.76-4.55,4.76-2.27,0-4-1.34-4.27-4.21,1.09-.51,2.05-1.48,2.05-3.1,0-1.43-.91-2.54-2.36-2.54-2.36,0-3.5,2.08-3.5,4.39,0,3.51,2.27,7.17,6.82,7.17h3.18v.37h-4.09v18.22c0,4.44,.41,5.36,4.09,5.36v.37h-16.14v-.37c3.23,0,3.64-.92,3.64-5.36v-18.22h-3.64v-.37h3.73c-.18-1.11-.41-2.36-.41-3.98,0-4.53,2.23-8.23,8.09-8.23,2.89,0,5.77,1.14,6.88,3.5l11.07-3.5-.18,22.67,4.09-4.04c1.46-1.48,2.96-2.91,2.96-4.39,0-1.02-.64-1.67-2.32-1.67v-.37h11.41v.37c-4.5,0-8.18,2.87-11.46,6.06l-4.24,4.15c2.79-1.4,4.58-1.7,5.97-1.7,5.36,0,7.27,5.18,8.5,9.11h0Z"/></g><g><path class="e" d="M109.68,267.96c0,4.44,.41,5.36,3.64,5.36v.37h-15.73v-.37c3.23,0,3.64-.92,3.64-5.36v-22.56c0-2.37-.16-4-1.98-4.15,.16,.5,.25,1.05,.25,1.65,0,3.1-2.05,4.76-4.55,4.76-2.27,0-4-1.34-4.27-4.21,1.09-.51,2.04-1.48,2.04-3.1,0-1.43-.91-2.54-2.36-2.54-2.36,0-3.5,2.08-3.5,4.39,0,3.51,2.27,7.17,6.82,7.17h3.18v.37h-4.09v18.22c0,4.44,.41,5.36,4.09,5.36v.37h-16.14v-.37c3.23,0,3.64-.92,3.64-5.36v-18.22h-3.64v-.37h3.73c-.18-1.11-.41-2.36-.41-3.98,0-4.53,2.23-8.23,8.09-8.23,2.84,0,5.68,1.1,6.83,3.39l10.72-3.39v30.79Z"/><path class="e" d="M178.18,249c3.09,0,5.95,1.99,5.95,5.78,0,3-2.09,5.36-5.05,5.36-2.04,0-3.91-1.25-4.04-3.88,1.36-.46,2.27-1.62,2.27-3.05s-.64-2.5-2-2.5c-2.2,0-3.84,3.02-4.73,6.14v11.1c0,4.44,.41,5.36,4.09,5.36v.37h-16.18v-.37c3.23,0,3.64-.92,3.64-5.36v-13.41c0-3.1,.04-4.81-4.36-4.81h-4.09v18.22c0,4.44,.41,5.36,3.64,5.36v.37h-15.68v-.37c3.23,0,3.64-.92,3.64-5.36v-18.22h-3.64v-.37h3.73c-.18-1.11-.41-2.36-.41-3.98,0-4.53,2.23-8.23,8.09-8.23,3.68,0,7.36,1.85,7.36,5.73,0,3.1-2.04,4.76-4.55,4.76-2.27,0-4-1.34-4.27-4.21,1.09-.51,2.05-1.48,2.05-3.1,0-1.43-.91-2.54-2.36-2.54-2.36,0-3.5,2.08-3.5,4.39,0,3.51,2.27,7.17,6.82,7.17h3.18c4.32,0,8.59-.05,12.91-.28l-.18,6.81c1.11-3.59,3.33-6.91,7.68-6.91h0Z"/><path class="e" d="M261.53,270.5c-2.09,1.8-4.64,3.47-7.91,3.47s-4.77-1.64-4.74-5.39c-3.89,4.18-7.3,5.48-10.08,5.48-3.68,0-5.32-2.17-5.32-6.89v-12.62c0-3.1,.05-4.81-4.36-4.81h-4.09v18.22c0,4.44,.41,5.36,4.09,5.36v.37h-16.14v-.37c3.23,0,3.64-.92,3.64-5.36v-18.22h-3.64v-.37h3.73c-.18-1.11-.41-2.36-.41-3.98,0-4.53,2.23-8.23,8.09-8.23,3.68,0,7.36,1.85,7.36,5.73,0,3.1-2.05,4.76-4.55,4.76-2.27,0-4-1.34-4.27-4.21,1.09-.51,2.04-1.48,2.04-3.1,0-1.43-.91-2.54-2.36-2.54-2.36,0-3.5,2.08-3.5,4.39,0,3.51,2.27,7.17,6.82,7.17h3.18c4.32,0,8.59-.05,12.82-.28v17.15c0,1.25,0,4.11,2.73,4.11,1.29,0,2.79-.66,4.14-2.25v-12.82c0-2.73-.14-4.21-3.18-3.65l-.09-.37,11.73-2.17v18.26c0,1.53,0,3.65,2.09,3.65,.59,0,1.14-.18,2-.79l.18,.28Z"/></g></g></g></g></svg>