<?xml version="1.0" encoding="UTF-8"?><svg xmlns="http://www.w3.org/2000/svg" viewBox="0 0 340.16 347.8"><defs><style>.d{fill:#fff;}.e{fill:#31351f;}</style></defs><g id="a"/><g id="b"><g id="c"><g><ellipse class="d" cx="170.08" cy="173.9" rx="170.08" ry="173.9"/><g><path class="e" d="M121.03,84.41c0-7.93,4.89-14.07,12.44-14.07s12.44,6.14,12.44,14.07-4.89,14.07-12.44,14.07-12.44-6.14-12.44-14.07Zm16.36,0c0-9.48-1.08-13.53-3.92-13.53s-3.92,4.11-3.92,13.53,1.08,13.53,3.92,13.53,3.92-4.05,3.92-13.53Z"/><path class="e" d="M205.51,91.09c0,4.59,0,6.5,3.41,6.5v.6h-14.6v-.6c3.47,0,3.47-1.91,3.47-6.5v-12.73c-1.22,1.53-2.71,2.77-3.86,3.55l-.17-.42c3.81-2.38,6.25-6.98,7.61-10.85h4.15v20.45Z"/></g><g><path class="e" d="M111.29,146.8c-.68,4.59-2.1,9.84-7.04,9.84-3.98,0-12.95-4.23-14.77-2.62,0,.71-.06,1.55,0,2.33h-.4c-.57-7.51,4.26-10.61,8.35-13.65,3.07-2.27,5.4-5.25,5.4-9.24,0-3.04-1.82-4.41-3.64-4.41-2.21,0-3.92,1.61-3.92,3.58,0,1.31,.68,2.21,1.59,2.74-.17,2.27-1.87,3.52-3.69,3.52-2.39,0-3.86-1.61-3.86-4.05,0-5.19,6.59-6.32,9.88-6.32,7.56,0,11.48,2.44,11.48,6.68,0,4.77-4.83,7.33-9.54,8.76-2.97,.92-6.84,1.73-9.51,4.06,1.27-.65,2.87-.96,4.28-.96,3.64,0,7.44,2.5,11.42,2.5,1.88,0,2.95-.83,3.52-2.86l.45,.12Z"/><path class="e" d="M158.61,150.26c0-2.56,1.93-3.99,3.86-3.99,1.82,0,3.52,1.25,3.69,3.52-.79,.48-1.59,1.25-1.59,2.92,0,2.62,1.82,3.4,4.15,3.4,3.29,0,3.75-3.46,3.75-6.74,0-4.41-1.14-7.33-4.83-7.33h-1.25v-.54h1.25c3.35,0,4.83-3.52,4.83-7.33s-1.25-5.13-3.46-5.13c-2.67,0-3.81,1.19-3.81,3.1,0,1.19,.68,2.15,1.53,2.5-.17,2.21-1.82,3.34-3.47,3.34-1.82,0-3.52-1.19-3.52-3.82,0-4.35,5.57-5.66,9.26-5.66,5.51,0,10.85,1.25,10.85,6.14s-5.17,6.56-9.83,7.09v.12c4.83,0,10.57,1.25,10.57,6.74,0,4.59-3.81,8.05-11.87,8.05-3.41,0-10.11-.95-10.11-6.38Z"/><path class="e" d="M237.75,156.34v-.6c3.41,0,3.41-1.91,3.41-6.5v-.6h-12.1v-.48c2.73-1.01,10.74-5.13,10.74-10.97,0-1.73-1.76-2.68-2.73-2.68-1.25,0-2.56,.6-2.9,1.91-2.44-.12-3.92-1.91-3.92-3.88s1.53-4.05,4.37-4.05c4.09,0,5.62,4.17,5.62,8.7,0,4.11-1.02,8.88-2.1,10.85h3.01v-12.28c1.82-2.33,2.95-4.83,3.64-6.98h4.09v19.26h4.09v.6h-4.09v.6c0,4.59,0,6.5,3.47,6.5v.6h-14.6Z"/></g><g><path class="e" d="M89.66,201.56c5.32-6.79,20.81-7.39,20.81,2.89,0,6.08-5.4,10.19-12.67,10.19-3.12,0-10-.95-10-6.38,0-2.56,1.93-4,3.86-4,1.82,0,3.52,1.25,3.69,3.52-.79,.48-1.59,1.25-1.59,2.92,0,2.27,2.39,3.4,4.03,3.4,3.69,0,4.94-2.92,4.94-6.2,0-7.87-9.54-7.63-13.8-5.07l1.59-9.06c.46-2.62,1.14-7.15,4.94-7.15,2.78,0,6.19,2.38,9.94,2.38,2.1,0,3.35-.83,3.92-2.5l.51,.06c-.74,4.35-2.22,9.06-6.99,9.06-3.52,0-8.12-2.5-10.85-2.5-.34,0-.59,0-.91,.13l-1.44,8.32Z"/><path class="e" d="M168.2,198.73c6.54-3.24,14.48-.37,14.48,6.56,0,6.02-5.57,9.36-10.91,9.36-8.41,0-11.99-6.92-11.99-14.07,0-6.68,3.81-14.07,12.5-14.07,3.07,0,9.26,.95,9.26,6.26,0,2.5-1.48,4.11-3.75,4.11-2.1,0-3.64-1.31-3.81-3.52,.85-.54,1.59-1.31,1.59-2.92,0-2.21-2.39-3.4-3.29-3.4-2.9,0-3.97,3.41-4.08,11.69h0Zm3.57,15.38c1.87,0,3.41-1.67,3.41-7.87,0-7.79-2.98-9.08-6.98-6.95,0,.3,0,.61,0,.92,0,9.66,1.02,13.89,3.58,13.89h0Z"/><path class="e" d="M244.26,210.71c-.11,2.27-1.93,3.93-4.49,3.93s-5-1.67-5-4.65c0-6.82,11.5-10.55,15.45-16.74-.94,.79-2.64,1.72-4.89,1.72-3.69,0-7.44-1.19-11.42-1.19-1.7,0-3.12,.6-3.46,2.44l-.51-.06c.74-4.65,1.99-9.66,6.99-9.66,4.09,0,13.58,4.41,14.71,2.21,.11-.66,.06-1.31-.06-2.03h.46c.06,.83,.06,1.61,.06,2.33,0,6.44-9.49,10.67-9.49,18.78,0,1.37,.51,2.38,1.65,2.92Z"/></g><g><path class="e" d="M129.49,270.03c0-3.4,1.99-4.95,5.45-6.38l.34,.3c-1.59,1.43-3.24,3.4-3.24,5.66,0,3.1,2.73,6.32,8.01,6.32,3.29,0,5.85-1.43,5.85-4.23,0-5.78-15.05-5.66-15.05-15.14,0-6.08,5.96-8.23,10.34-8.23,4.89,0,8.75,1.67,8.75,5.31,0,1.97-.74,3.93-3.98,5.84l-.45-.18c1.53-1.55,2.04-3.58,2.04-5.19,0-2.68-2.04-5.25-6.36-5.25-2.1,0-4.54,1.55-4.54,3.52,0,5.9,15.05,5.78,15.05,15.14,0,5.54-4.66,8.94-11.65,8.94-5.85,0-10.57-1.55-10.57-6.44Z"/><path class="e" d="M211.36,248.33c8.46,0,12.04,6.98,12.04,14.07,0,6.68-3.81,14.07-12.55,14.07-3.01,0-9.2-.95-9.2-6.26,0-2.56,1.48-4.11,3.75-4.11,1.99,0,3.58,1.19,3.75,3.52-.85,.54-1.53,1.37-1.53,2.92,0,2.21,2.33,3.4,3.24,3.4,2.96,0,4.03-3.47,4.14-11.71-6.55,3.29-14.48,.42-14.48-6.53,0-6.02,5.51-9.36,10.85-9.36h0Zm-3.35,8.41c0,7.83,2.95,9.09,6.98,6.92,0-.29,0-.59,0-.89,0-9.78-1.08-13.89-3.64-13.89-1.82,0-3.35,1.67-3.35,7.87h0Z"/></g></g></g></g></svg>