<?xml version="1.0" encoding="UTF-8"?><svg xmlns="http://www.w3.org/2000/svg" viewBox="0 0 340.16 346.07"><defs><style>.d{fill:#fff;}.e{fill:#31351f;}</style></defs><g id="a"/><g id="b"><g id="c"><g><ellipse class="d" cx="170.08" cy="173.04" rx="170.08" ry="173.04"/><g><path class="e" d="M123.58,94.14c2.64,0,4.9,1.73,4.9,4.66,0,9.62-24.52,12.6-24.77-2.35-.5,3.17-4.43,5.81-8.88,5.81s-7.39-2.21-7.39-6.34c0-7.58,10.8-6.29,16.23-10.03v-3.36c0-2.83-.38-6.19-3.6-6.19-2.74,0-3.94,2.16-3.94,4.18,0,1.34,.67,2.45,1.68,2.93-.14,2.74-2.11,4.03-4.27,4.03-2.59,0-4.51-1.73-4.51-4.42,0-5.52,7.3-6.82,11.04-6.82,6.67,0,12.53,1.87,12.53,7.44v18.19h-7.3c3.74,6.14,16.08,6.34,16.08,.29,0-2.06-1.44-3.12-2.69-3.5,.14-3.12,2.54-4.51,4.9-4.51h0Zm-19.92,1.83v-9.99c-3.41,2.21-6.43,2.74-6.43,8.3,0,2.02,.67,5.33,3.36,5.33,1.87,0,3.07-2.06,3.07-3.65Z"/><path class="e" d="M186.84,94.14c2.64,0,4.9,1.73,4.9,4.66,0,9.64-24.37,12.48-24.77-2.14-2.13,3.34-4.85,5.6-8.16,5.6-5.71,0-9.41-4.8-9.41-12,0-8.16,5.86-14.02,14.4-14.02,1.06,0,2.15,.23,3.13,.72l-.11-5.91c-.05-3.5-.24-4.9-4.7-3.84v-.05l13.68-3.22v37.92h-7.25c3.74,6.14,16.08,6.34,16.08,.29,0-2.06-1.44-3.12-2.69-3.5,.14-3.12,2.54-4.51,4.9-4.51h0Zm-23.81,5.71c1.62,0,2.66-1.42,3.89-3.29v-15.2c0-2.45-.19-5.04-3.12-5.04-3.22,0-4.61,3.84-4.61,13.92,0,1.73,.05,9.6,3.84,9.6h0Z"/><path class="e" d="M256.63,98.79c0,9.65-24.53,12.67-24.77-2.59v-11.57c0-1.97-.24-5.04-3.02-5.04-1.39,0-2.78,.82-4.22,2.06v14.26c0,3.5,.24,5.9,2.83,5.9v.05h-15.84v-.05c3.7,0,4.13-1.25,4.13-5.9v-24.87c0-3.55-.24-4.9-4.7-3.84v-.05l13.68-3.22-.14,17.57c4.75-3.89,7.68-5.28,10.61-5.28,3.89,0,5.57,2.26,5.57,7.15v18.48h-7.2c3.89,6.19,15.99,6.34,15.99,.29,0-2.06-1.44-3.12-2.69-3.5,.14-3.12,2.54-4.51,4.9-4.51,2.64,0,4.9,1.73,4.9,4.66Z"/><path class="e" d="M124.8,156.25c.14-3.12,2.54-4.51,4.9-4.51,2.64,0,4.9,1.73,4.9,4.66,0,9.65-24.39,12.48-24.77-2.16v-13.2c0-3.55-.24-4.9-4.7-3.84v-.05l13.73-3.22-.1,5.33v20.21h-7.34c3.74,6.14,16.08,6.34,16.08,.29,0-2.06-1.44-3.12-2.69-3.5Zm-15.94-29.33c0-2.98,2.45-5.38,5.42-5.38s5.42,2.35,5.42,5.38-2.4,5.47-5.42,5.47-5.42-2.45-5.42-5.47Z"/><path class="e" d="M207.75,164.98c-2.54,4.75-7.2,7.78-13.49,7.78-19.54,0-18.19-27.94-25.01-27.94-.52,0-1.01,.16-1.78,.55v8.14c0,3.5,.24,5.9,3.31,5.9v.05h-16.32v-.05c3.7,0,4.13-1.25,4.13-5.9v-24.87c0-3.55-.24-4.9-4.7-3.84v-.05l13.68-3.22-.14,23.67,6.05-5.91c1.3-1.25,2.21-2.59,2.21-3.6,0-1.15-.91-1.44-3.41-1.44v-.05h12.63v.05c-5.28,.1-8.35,2.21-11.28,5.04l-6.08,5.94c2.78-1.42,5-2,7.08-2,13.25,0,9.31,23.76,26.69,23.76,2.93,0,5.47-.67,6.34-2.06l.1,.05Z"/><path class="e" d="M228,156.25c.14-3.12,2.54-4.51,4.9-4.51,2.64,0,4.9,1.73,4.9,4.66,0,9.65-24.39,12.48-24.77-2.16v-25.59c0-3.55-.24-4.9-4.7-3.84v-.05l13.58-3.22v37.92h-7.3c3.74,6.14,16.08,6.34,16.08,.29,0-2.06-1.44-3.12-2.69-3.5Z"/><path class="e" d="M134.77,209.34c2.64,0,4.9,1.73,4.9,4.66,0,9.65-24.53,12.67-24.77-2.59v-11.57c0-1.97-.24-5.04-2.64-5.04-1.37,0-2.84,.84-4.35,2.1,.05,.52,.08,1.09,.08,1.69v12.53c0,3.5,.24,5.9,2.69,5.9v.05h-14.26v-.05c2.45,0,2.69-1.58,2.69-5.9v-11.28c0-1.97-.24-5.04-2.64-5.04-1.38,0-2.85,.84-4.27,2.07v14.25c0,3.5,.24,5.9,2.69,5.9v.05h-15.7v-.05c3.7,0,4.13-1.25,4.13-5.9v-12.48c0-3.55-.24-4.9-4.7-3.84v-.05l13.68-3.22-.14,5.19c4.72-3.86,7.35-5.29,10.27-5.29,3.36,0,5.07,1.68,5.47,5.3,4.79-3.88,7.41-5.3,10.32-5.3,3.89,0,5.57,2.26,5.57,7.15v18.48h-7.2c3.89,6.19,15.99,6.34,15.99,.29,0-2.06-1.44-3.12-2.69-3.5,.14-3.12,2.54-4.51,4.9-4.51h0Z"/><path class="e" d="M199.66,209.34c2.64,0,4.9,1.73,4.9,4.66,0,9.65-24.53,12.67-24.77-2.59v-11.57c0-1.97-.24-5.04-3.02-5.04-1.38,0-2.75,.8-4.22,2.07v14.25c0,3.5,.24,5.9,2.83,5.9v.05h-15.84v-.05c3.7,0,4.13-1.25,4.13-5.9v-12.48c0-3.55-.24-4.9-4.7-3.84v-.05l13.68-3.22-.14,5.24c4.77-3.91,7.69-5.33,10.61-5.33,3.89,0,5.57,2.26,5.57,7.15v18.48h-7.2c3.89,6.19,15.99,6.34,15.99,.29,0-2.06-1.44-3.12-2.69-3.5,.14-3.12,2.54-4.51,4.9-4.51h0Z"/><path class="e" d="M225.48,204.44c0-7.68,6.14-13.01,14.02-13.01,6.14-.34,12.05-1.34,16.56-1.34,3.46,0,8.26,1.15,8.26,5.71,0,3.07-2.26,4.85-4.75,4.85s-4.7-1.39-4.85-4.42c1.15-.48,2.26-1.49,2.26-3.07,0-1.92-1.25-2.78-3.36-2.78s-7.06,.62-12.58,1.06v.05c7.1,.77,12.48,5.86,12.48,12.96,0,7.68-6.14,13.01-14.02,13.01s-14.02-5.33-14.02-13.01Zm18.24,0c0-7.01-.48-12.91-4.22-12.91s-4.22,5.9-4.22,12.91c0,7.49,.48,12.91,4.22,12.91s4.22-5.42,4.22-12.91Z"/><path class="e" d="M139.11,266.94c2.64,0,4.9,1.73,4.9,4.66,0,9.64-24.84,12.62-24.77-2.62-4.12,4.67-7.67,6.07-10.61,6.07-3.89,0-5.62-2.26-5.62-7.15v-12.34c0-3.31-.24-4.66-4.7-3.89v-.1l13.63-2.45v17.81c0,1.3,0,4.27,2.88,4.27,1.35,0,2.96-.67,4.37-2.28v-13.37c0-2.83-.05-4.7-3.46-4.08v-.1l12.39-2.26v25.54h-7.3c3.74,6.14,16.08,6.34,16.08,.29,0-2.06-1.44-3.12-2.69-3.5,.14-3.12,2.54-4.51,4.9-4.51h0Z"/><path class="e" d="M185.91,237.65c4.8,0,7.54,3.26,7.54,7.34s-2.11,7.73-4.08,11.71l-9.36,18.91c-2.02,4.08-4.8,10.22-10.66,10.22-4.13,0-5.57-2.98-5.57-5.28,0-2.64,2.21-4.94,4.94-4.94,2.4,0,4.13,1.39,4.27,4.42-1.58,.53-2.98,1.63-2.98,3.07,0,1.3,.86,1.73,1.87,1.73,2.35,0,5.03-2.78,8.05-9.33l-10.21-20.38c-2.06-4.08-2.64-5.66-5.95-5.66v-.05h17.67v.05c-4.27,0-3.07,3.02-1.39,6.38l4.81,9.72,4.41-8.9c1.97-3.94,4.03-7.78,4.03-11.67s-2.69-6.24-4.85-6.24c-1.54,0-2.64,1.15-2.64,2.4s1.1,2.35,2.26,2.83c-.14,3.02-2.45,4.42-4.85,4.42s-4.75-1.82-4.75-4.8c0-4.51,4.42-5.95,7.44-5.95h0Z"/><path class="e" d="M223.25,274.66h-9.26l15.65-25.15c-9.98,0-13.15,3.36-13.97,10.18h-.05l1.1-10.27h23.33l-15.7,25.25c2.02,.14,7.01,2.21,9.17,2.21s3.74-1.15,3.74-3.17c0-1.63-1.1-2.64-2.26-3.12,.14-3.02,2.45-4.42,4.75-4.42,2.59,0,4.85,1.78,4.85,4.9,0,4.37-4.46,6.14-9.26,6.14-4.51,0-8.69-2.54-12.1-2.54Z"/></g></g></g></g></svg>