<?xml version="1.0" encoding="UTF-8"?><svg xmlns="http://www.w3.org/2000/svg" viewBox="0 0 340.16 346.07"><defs><style>.d{fill:#fff;}.e{fill:#31351f;}</style></defs><g id="a"/><g id="b"><g id="c"><g><ellipse class="d" cx="170.08" cy="173.04" rx="170.08" ry="173.04"/><g><path class="e" d="M150.87,107.39c-2.11,4.03-6.1,7.78-12.82,7.78-20.74,0-21.7-30.87-28.51-30.87-.5,0-1.04,.15-1.58,.44v8.49c0,5.62,.43,8.59,4.18,8.59v.05h-19.25v-.05c5.18,0,5.18-2.98,5.18-8.59v-16.32c0-5.81,0-8.59-5.18-8.59v-.05h19.25v.05c-3.74,0-4.18,2.98-4.18,8.35v7.96l6.19-6.67c2.93-3.17,5.42-6.05,5.42-7.87,0-1.3-.96-1.78-3.5-1.78v-.05h14.06v.05c-6.24,0-11.23,4.7-15.89,9.7l-5.98,6.46c2.36-1.44,5.47-1.89,7.47-1.89,12.1,0,10.75,26.83,29.04,26.83,2.3,0,4.9-.43,6-2.02h.1Z"/><path class="e" d="M211.5,107.38c-2.5,4.8-7.06,7.78-13.49,7.78-19.11,0-21.79-30.34-28.51-30.34h-1.44v8.4c0,5.62,0,8.59,5.67,8.59v.05h-20.74v-.05c5.18,0,5.18-2.98,5.18-8.59v-16.32c0-5.81,0-8.59-5.18-8.59v-.05h17.71c4.94,0,16.13,.19,16.13,8.26,0,6.58-9.79,8.06-15.5,8.3v.05c9.94-.72,13.06,3.22,17.28,11.28,3.84,7.34,7.39,13.25,16.37,13.25,3.02,0,5.57-.67,6.43-2.06l.1,.05Zm-43.44-22.66h1.44c4.7,0,6.77-2.54,6.77-8.21,0-4.46-1.58-8.16-6.82-8.16h-1.39v16.37Z"/><path class="e" d="M243.46,88.23c0,8.16-5.86,14.02-14.4,14.02-2.5,0-4.94-.77-7.25-1.82l-4.75,1.78v-36.82l6.1-.72v-.05c-3.75-.43-5.33-.62-6.91-.62-3.6,0-5.28,1.1-5.28,3.31,0,1.44,1.1,2.5,2.26,2.98-.14,3.02-2.45,4.42-4.85,4.42s-4.75-1.82-4.75-4.8c0-4.51,4.51-6.24,9.26-6.24s9.55,.91,11.28,.91c.72,0,1.44-.29,1.87-.58l-.14,17.84c2.13-3.34,4.85-5.6,8.16-5.6,5.71,0,9.41,4.8,9.41,12Zm-14.4,13.92c3.22,0,4.61-3.84,4.61-13.92,0-1.73-.05-9.6-3.84-9.6-1.62,0-2.66,1.42-3.89,3.29v15.2c0,2.45,.19,5.04,3.12,5.04h0Z"/><path class="e" d="M130.4,156.15c-2.21,1.87-4.94,3.6-7.92,3.6-3.59,0-5.28-2.2-5.42-5.5-2.13,3.34-4.85,5.6-8.16,5.6-5.71,0-9.41-4.8-9.41-12,0-8.16,5.86-14.02,14.4-14.02,1.07,0,2.15,.23,3.14,.72l-.16-11.57,6.14-.72v-.05c-3.74-.43-5.33-.62-6.91-.62-3.6,0-5.28,1.1-5.28,3.31,0,1.44,1.1,2.5,2.26,2.98-.14,3.02-2.45,4.42-4.85,4.42s-4.75-1.82-4.75-4.8c0-4.51,4.51-6.24,9.26-6.24s9.55,.91,11.28,.91c.72,0,1.44-.29,1.87-.58v32.31c0,1.97,.48,3.17,2.26,3.17,.62,0,1.39-.29,2.21-.96l.05,.05Zm-17.28,1.3c1.62,0,2.66-1.42,3.89-3.29v-15.2c0-2.45-.19-5.04-3.12-5.04-3.22,0-4.61,3.84-4.61,13.92,0,1.73,.05,9.6,3.84,9.6h0Z"/><path class="e" d="M187.86,150.49c-2.11,5.04-6.43,9.36-13.11,9.36s-12.38-4.61-12.38-12.58c0-1.35,.16-2.63,.46-3.83-1.48-.16-2.56-.21-3.1-.21-1.73,0-2.98,.82-2.98,2.74,0,1.58,1.1,2.59,2.26,3.07-.14,3.02-2.45,4.42-4.85,4.42s-4.75-1.78-4.75-4.85c0-4.56,4.8-5.71,8.26-5.71,1.34,0,3.09,.18,5.19,.45,1.51-5.75,6.4-9.57,13.29-9.57,8.45,0,12.82,4.22,11.28,10.32-5.79,.52-11.2,.48-16.01,.02,.34,6.77,4.05,9.82,8.81,9.82,2.59,0,5.91-.91,7.58-3.5l.05,.05Zm-11.71-16.61c-4.18,0-4.75,6.29-4.75,9.22,0,.32,0,.63,.02,.93,2.48,.25,4.91,.35,7.38,.36,.95-3.43,1.07-10.51-2.65-10.51h0Z"/><path class="e" d="M231.68,128.07c1.25-.38,2.21-1.39,2.21-2.93,0-1.44-.91-2.98-2.83-2.98-2.64,0-4.22,2.3-4.22,5.18,0,3.41,2.3,6.87,7.49,6.87h4.61v.1h-4.61v19.2c0,4.66,.43,5.9,4.61,5.9v.05h-17.62v-.05c3.7,0,4.13-1.25,4.13-5.9v-19.2c-2.25-.1-5.24-.72-6.72-.72-1.73,0-2.98,.82-2.98,2.74,0,1.58,1.1,2.59,2.26,3.07-.14,3.02-2.45,4.42-4.85,4.42s-4.75-1.78-4.75-4.85c0-4.56,4.8-5.71,8.26-5.71,2.57,0,6.24,.85,8.87,.96-.19-1.43-.42-3.04-.42-4.17,0-5.57,2.93-8.5,8.64-8.5,3.79,0,7.39,2.3,7.39,5.95,0,2.59-1.92,4.85-4.8,4.85-2.4,0-4.37-1.3-4.66-4.27h0Z"/><path class="e" d="M136.86,211.11c0,4.66,.43,5.9,4.13,5.9v.05h-15.7v-.05c2.45,0,2.69-1.58,2.69-5.9v-11.28c0-1.97-.24-5.04-2.64-5.04-1.37,0-2.84,.84-4.35,2.1,.05,.52,.08,1.09,.08,1.69v12.53c0,3.5,.24,5.9,2.69,5.9v.05h-14.26v-.05c2.45,0,2.69-1.58,2.69-5.9v-11.28c0-1.97-.24-5.04-2.64-5.04-1.38,0-2.85,.84-4.27,2.07v14.25c0,3.5,.24,5.9,2.69,5.9v.05h-15.7v-.05c3.7,0,4.13-1.25,4.13-5.9v-18.24l6.1-.67v-.05c-3.74-.43-5.33-.62-6.91-.62-3.6,0-5.28,1.1-5.28,3.31,0,1.44,1.1,2.5,2.26,2.98-.14,3.02-2.45,4.42-4.85,4.42s-4.75-1.82-4.75-4.8c0-4.51,4.51-6.24,9.27-6.24s9.55,.91,11.28,.91c.86,0,1.44-.29,1.87-.58l-.14,5.19c4.72-3.86,7.35-5.29,10.27-5.29,3.36,0,5.07,1.68,5.47,5.3,4.79-3.88,7.41-5.3,10.32-5.3,3.89,0,5.57,2.26,5.57,7.15v12.53Z"/><path class="e" d="M189.56,211.11c0,4.66,.43,5.9,4.13,5.9v.05h-15.79v-.05c2.54,0,2.78-1.58,2.78-5.9v-11.28c0-1.97-.24-5.04-3.02-5.04-1.38,0-2.75,.8-4.22,2.07v14.25c0,3.5,.24,5.9,2.83,5.9v.05h-15.84v-.05c3.7,0,4.13-1.25,4.13-5.9v-18.24l6.1-.67v-.05c-3.75-.43-5.33-.62-6.91-.62-3.6,0-5.28,1.1-5.28,3.31,0,1.44,1.1,2.5,2.26,2.98-.14,3.02-2.45,4.42-4.85,4.42s-4.75-1.82-4.75-4.8c0-4.51,4.51-6.24,9.26-6.24s9.55,.91,11.28,.91c.86,0,1.44-.29,1.87-.58l-.14,5.24c4.77-3.91,7.69-5.33,10.61-5.33,3.89,0,5.57,2.26,5.57,7.15v12.53Z"/><path class="e" d="M214.61,204.44c0-6.82,5.28-12.29,12.48-12.96v-.05c-5.52-.43-10.37-1.06-12.58-1.06s-3.36,.86-3.36,2.78c0,1.58,1.1,2.59,2.26,3.07-.14,3.02-2.45,4.42-4.85,4.42s-4.75-1.78-4.75-4.85c0-4.56,4.8-5.71,8.26-5.71,4.51,0,10.42,1.01,16.56,1.34,7.87,0,14.02,5.33,14.02,13.01s-6.14,13.01-14.02,13.01-14.02-5.33-14.02-13.01Zm18.24,0c0-7.01-.48-12.91-4.22-12.91s-4.22,5.9-4.22,12.91c0,7.49,.48,12.91,4.22,12.91s4.22-5.42,4.22-12.91Z"/><path class="e" d="M121.09,270.15c2.06,3.26,3.84,4.46,6,4.46v.05h-18.58v-.05c2.3,0,3.02-.67,3.02-1.87,0-.91-.53-2.3-1.54-3.89l-2.91-4.56c-2.92,3.35-4.33,6.14-4.33,7.73,0,1.73,1.15,2.59,3.36,2.59v.05h-12.72v-.05c4.07,0,7.68-4.05,13.63-10.43l-8.73-13.67,6.1-.72v-.05c-3.74-.43-5.33-.62-6.91-.62-3.6,0-5.28,1.1-5.28,3.31,0,1.44,1.1,2.5,2.26,2.98-.14,3.02-2.45,4.42-4.85,4.42s-4.75-1.82-4.75-4.8c0-4.51,4.51-6.24,9.26-6.24s9.55,.91,11.28,.91c.86,0,1.68-.14,2.3-.43l5.69,8.87c2.09-2.49,3.91-5.17,3.91-6.81,0-1.2-.82-1.87-2.88-1.87v-.05h11.71v.05c-4.65,0-8.94,4.59-12.69,8.76l7.65,11.93Z"/><path class="e" d="M180.37,249.41h10.32v.05c-2.98,0-4.37,2.02-6.96,7.25l-9.36,18.91c-2.02,4.08-4.8,10.22-10.66,10.22-4.13,0-5.57-2.98-5.57-5.28,0-2.64,2.21-4.94,4.94-4.94,2.4,0,4.13,1.39,4.27,4.42-1.58,.53-2.98,1.63-2.98,3.07,0,1.3,.86,1.73,1.87,1.73,2.35,0,5.03-2.78,8.05-9.33l-12.52-24.99,6.1-.72v-.05c-3.74-.43-5.33-.62-6.91-.62-3.6,0-5.28,1.1-5.28,3.31,0,1.44,1.1,2.5,2.26,2.98-.14,3.02-2.45,4.42-4.85,4.42s-4.75-1.82-4.75-4.8c0-4.51,4.51-6.24,9.27-6.24s9.55,.91,11.28,.91c.86,0,1.63-.14,2.26-.43l8.07,16.29,4.41-8.9c2.06-4.18,2.45-7.2-3.26-7.2v-.05Z"/><path class="e" d="M245.12,257.24c5.38,0,6.19,5.33,5.76,8.06h-.05c-.1-1.3-1.2-1.78-2.11-1.78-1.71,0-4.32,1.67-7.51,3.15,.01,.18,.02,.36,.02,.54,0,5.71-6.34,7.82-13.11,7.82-7.63,0-15.75-2.78-15.75-9.5s9.7-10.03,18.72-10.03v-.05c-10.27-.05-15.7-3.22-15.7-7.58,0-3.55,3.7-7.2,13.44-7.2,4.61,0,11.28,1.15,11.28,6.96,0,3.17-2.59,4.66-4.85,4.66s-4.27-1.3-4.42-4.03c1.06-.48,2.16-1.78,2.16-3.46,0-2.16-1.3-4.03-4.18-4.03-3.7,0-4.8,4.03-4.8,6.67,0,5.14,3.5,7.92,8.06,7.92h1.34v.19h-.77c-6.96,0-10.71,5.04-10.71,10.46,0,5.71,4.22,8.69,9.12,8.69,4.15,0,8.11-2.54,8.25-7.23-2.04,.81-4.28,1.42-6.62,1.42-4.9,0-7.2-2.59-7.2-5.14s2.11-4.8,6-4.8c2.12,0,4.41,.62,6.24,1.86,2.43-1.79,4.86-3.58,7.35-3.58h0Zm-14.64,7.11c2.23,0,4.4-1.42,6.56-2.99-1.54-1.53-3.63-2.29-5.51-2.29-3.12,0-4.66,1.49-4.66,2.88,0,1.25,1.2,2.4,3.6,2.4h0Z"/></g></g></g></g></svg>